<?xml version="1.0" encoding="UTF-8" standalone="no"?>
<svg
   xmlns:dc="http://purl.org/dc/elements/1.1/"
   xmlns:cc="http://creativecommons.org/ns#"
   xmlns:rdf="http://www.w3.org/1999/02/22-rdf-syntax-ns#"
   xmlns:svg="http://www.w3.org/2000/svg"
   xmlns="http://www.w3.org/2000/svg"
   xmlns:sodipodi="http://sodipodi.sourceforge.net/DTD/sodipodi-0.dtd"
   xmlns:inkscape="http://www.inkscape.org/namespaces/inkscape"
   width="69.632774mm"
   height="49.79039mm"
   viewBox="0 0 69.632774 49.79039"
   version="1.1"
   id="svg8"
   inkscape:version="1.0.2-2 (e86c870879, 2021-01-15)"
   sodipodi:docname="tigo-2019.svg">
  <defs
     id="defs2">
    <clipPath
       id="clipEmfPath1"
       clipPathUnits="userSpaceOnUse">
      <path
         id="path815"
         d="M 0,0 H 41.829842 V 35.00048 H 0 Z"
         inkscape:connector-curvature="0" />
    </clipPath>
    <pattern
       y="0"
       x="0"
       height="6"
       width="6"
       patternUnits="userSpaceOnUse"
       id="EMFhbasepattern" />
    <clipPath
       id="clipEmfPath1-9"
       clipPathUnits="userSpaceOnUse">
      <path
         id="path931"
         d="M 0,0 H 41.829842 V 35.00048 H 0 Z"
         inkscape:connector-curvature="0" />
    </clipPath>
    <pattern
       y="0"
       x="0"
       height="6"
       width="6"
       patternUnits="userSpaceOnUse"
       id="EMFhbasepattern-5" />
  </defs>
  <sodipodi:namedview
     id="base"
     pagecolor="#ffffff"
     bordercolor="#666666"
     borderopacity="1.0"
     inkscape:pageopacity="0.0"
     inkscape:pageshadow="2"
     inkscape:zoom="1"
     inkscape:cx="-88.284122"
     inkscape:cy="119.97736"
     inkscape:document-units="mm"
     inkscape:current-layer="layer1"
     showgrid="false"
     inkscape:window-width="1600"
     inkscape:window-height="847"
     inkscape:window-x="-8"
     inkscape:window-y="-8"
     inkscape:window-maximized="1"
     inkscape:document-rotation="0" />
  <metadata
     id="metadata5">
    <rdf:RDF>
      <cc:Work
         rdf:about="">
        <dc:format>image/svg+xml</dc:format>
        <dc:type
           rdf:resource="http://purl.org/dc/dcmitype/StillImage" />
        <dc:title />
      </cc:Work>
    </rdf:RDF>
  </metadata>
  <g
     inkscape:label="Capa 1"
     inkscape:groupmode="layer"
     id="layer1"
     transform="translate(-17.810722,10.714088)">
    <path
       style="fill:#0b4889;fill-opacity:1"
       d="m 22.970102,-4.1004125 c -1.826349,-0.191226 -3.598101,0.272707 -5.159378,3.26234796 l -2e-6,17.50739754 c 2.241656,7.633218 13.808948,6.402762 12.524369,-0.0016 -5.449336,2.033385 -7.103308,-0.461419 -7.296713,-2.667167 -0.247764,-2.825714 0.01232,-6.6329675 -0.09912,-8.8405005 5.320506,0.176173 7.580496,0.152344 7.174587,-4.48303104 l -7.408331,-0.01492 z"
       id="path900"
       inkscape:connector-curvature="0"
       sodipodi:nodetypes="ccccscccc" />
    <path
       style="fill:#0b4889;fill-opacity:1"
       d="m 34.065104,0.9973952 0.09449,15.7805058 c 1.29526,6.779626 10.267619,6.151357 9.402159,0.803199 -2.08482,0.376982 -3.794057,0.205036 -4.252232,-1.795386 L 39.21503,3.4542404 C 38.67189,1.185672 36.745792,0.62546377 34.065104,0.9973952 Z"
       id="path902"
       inkscape:connector-curvature="0"
       sodipodi:nodetypes="cccccc" />
    <circle
       style="opacity:1;fill:#0b4889;fill-opacity:1;fill-rule:nonzero"
       id="path904"
       cx="36.687313"
       cy="-4.1289067"
       r="2.9813373" />
    <path
       style="fill:#0b4889;fill-opacity:1"
       d="M 63.972468,6.525297 C 56.742347,2.2166774 51.971651,5.4759849 50.601562,9.3128713 50.258464,10.60429 50.30811,11.895708 50.459822,13.187127 c 1.465384,5.216818 5.946625,6.242975 8.787945,4.677456 1.093928,-1.941979 0.07564,-4.3064 0.04725,-6.472843 2.334389,-0.384297 4.226878,-0.142568 5.055434,1.606399 l 0.09449,5.433408 c -1.095154,3.524933 -3.553658,3.827401 -6.000372,4.157738 -1.01697,0.139423 -2.118737,0.109254 -3.260045,0 C 48.814921,21.917854 45.901823,17.994969 45.26265,13.61235 45.0328,12.226437 45.17533,10.840525 45.3099,9.4546122 46.260881,5.3267658 48.751151,1.2039737 55.609751,0.1941958 c 1.259921,-0.12908359 2.519842,-0.0205102 3.779763,0.094494 5.695475,1.1298477 5.011033,4.3058474 4.582954,6.2366072 z"
       id="path906"
       inkscape:connector-curvature="0"
       sodipodi:nodetypes="cccccccccccccc" />
    <path
       style="fill:#0b4889;fill-opacity:1"
       d="m 67.398693,8.9302221 h 5.121553 c 0.764273,-2.2525315 1.884814,-4.1487941 4.747373,-4.3030393 3.969617,0.350994 4.586777,3.098163 4.911077,4.466742 0.224796,1.5746632 0.349474,3.2485452 -0.02339,4.7239892 -1.154153,3.825166 -3.539052,3.928298 -4.607057,3.88209 C 75.203685,17.580973 73.3123,16.524795 72.5904,13.537281 72.348131,12.074555 72.390858,10.516831 72.52024,8.9302216 l -5.12155,5e-7 C 66.915355,14.55436 68.450176,22.352061 77.192184,21.965626 87.781198,21.435537 87.730867,12.183579 87.312496,8.2403653 86.986487,5.7039757 84.419516,0.37545343 77.48984,0.13750078 70.009204,0.59825552 67.812426,5.3319444 67.398693,8.9302221 Z"
       id="path912"
       inkscape:connector-curvature="0"
       sodipodi:nodetypes="ccccccccccccc" />
    <path
       style="fill:#0b4889;fill-opacity:1"
       d="m 68.193819,-2.2950978 c 6.026655,-6.0401132 12.507872,-6.275382 18.87257,0.093544 0.01522,-4.1910399 -2.335549,-8.4409472 -9.658453,-8.5125342 -6.559179,0.298687 -9.374446,3.650556 -9.214117,8.4189902 z"
       id="path914"
       inkscape:connector-curvature="0"
       sodipodi:nodetypes="cccc" />
    <path
       style="fill:#0b4889;fill-opacity:1"
       d="m 50.880963,26.316898 c 9.133696,9.154092 18.956302,9.510652 28.602321,-0.141765 0.02306,6.351729 -3.539641,12.792676 -14.637868,12.90117 -9.940762,-0.452675 -14.207439,-5.532599 -13.964453,-12.7594 z"
       id="path914-0"
       inkscape:connector-curvature="0"
       sodipodi:nodetypes="cccc" />
  </g>
</svg>
